<svg id="Layer_1_FUELLING_INNOVATION_VHAMS_INTERNATIONAL_Hue_Saturation_2_LOGO_ONLY_Brightness_Contrast_1_LOGO_ONLY_copy_Hue_Saturation_1_copy_Image" data-name="Layer 1 + FUELLING INNOVATION + VHAMS INTERNATIONAL + Hue/Saturation 2 + LOGO ONLY + Brightness/Contrast 1 + LOGO ONLY copy + Hue/Saturation 1 copy Image" xmlns="http://www.w3.org/2000/svg" viewBox="0 0 88.26 68.49"><defs><style>.cls-1{fill:#fff;}</style></defs><title>Artboard 1</title><path d="M-92,128.69V-17.71H182.09v146.4ZM28.82,110.08c-2.51-.22-3.32-1-3.49-3.09a5.32,5.32,0,0,1,1.16-3.56l3.68.95c-1.09-1.29-2.35-1.23-3.66-.93a8.9,8.9,0,0,0-1.88,1.64,3.19,3.19,0,0,0,.25,3.77c1,1.4,2.39,1.51,3.91,1.19.41-.3,1-.53,1.19-.93a5.49,5.49,0,0,0,.29-2.32c0-.2-.86-.34-1.32-.51A5,5,0,0,1,28.82,110.08Zm50.29-4.6-.46,1.39-.42.88c.7.11,1.59,0,2,.37s.45,1.36.65,2.06H82l-2-6.9-.31.05Zm23.28,4.5a4.47,4.47,0,0,0,1.07-.45,3.65,3.65,0,0,0,.72-4.85,3.77,3.77,0,0,0-4.7-1,3.62,3.62,0,0,0-1.41,4.59,3.32,3.32,0,0,0,4.37,1.71Zm-39.32-6.52a3.33,3.33,0,0,0-2.21,4.43c.74,2.14,2.76,2.77,4.76,2.06a3.46,3.46,0,0,0,1.86-4.49,3.35,3.35,0,0,0-4.46-2ZM59.78,24.5,44.48,48.42c-.51-.88-.89-1.58-1.3-2.26q-5.3-8.55-10.61-17.09Q26,18.44,19.41,7.79a1.91,1.91,0,0,0-1.89-1.08c-2,0-3.92-.09-5.87-.13-1.33,0-2.67,0-4.23,0L44.79,63.94,81,7.46c-3.5,0-6.62,0-9.74,0a1.48,1.48,0,0,0-1,.65c-1.43,2.17-2.8,4.36-4.2,6.55l-2.51,3.91a15.44,15.44,0,0,0-21.69.12C36.38,24.31,36,32.65,39.15,37.61c-.18-.67-.27-1.08-.4-1.49a17,17,0,0,1-.22-8.86c.23-1,.69-1.61,1.38-1.71l2.68,2.29c.21-.1.23,0,.24.13.19,2.12.84,2.68,2.94,2.71a1.55,1.55,0,0,1,1.58.88,7.24,7.24,0,0,0,1.3,1.81c.13.14.74.06.91-.12a2,2,0,0,0,.26-1q.38-2.57.73-5.14c0-.34.16-.77,0-1-.6-1.07,0-1.42.88-1.55a24,24,0,0,1,2.47-.18L55.85,28a9.67,9.67,0,0,1,.27-1.37,3.21,3.21,0,0,1,.59-1.06c.43-.48.94-.88,1.42-1.31L58,23.89Zm-15.07,44L88.26,1.2,87.88.88a18.79,18.79,0,0,0-2.22,2.34C82.82,7.46,80,11.75,77.25,16L46.08,63.89c-.44.68-.9,1.35-1.41,2.11-.46-.73-.84-1.34-1.23-1.94L20.84,29.33q-9-13.85-18-27.71A3.78,3.78,0,0,0,0,0ZM-40,79.22h-.38a8.39,8.39,0,0,0-.44.91c-1.55,4.47-3.11,8.93-4.64,13.41-.43,1.25-.77,2.52-2.37,2.68h3.92c-1.77-.37-1.87-.53-1.38-2s.9-2.62,1.37-4c1.28,0,2.52,0,3.75,0a1.23,1.23,0,0,1,.9.66c.48,1.43.88,2.89,1.26,4.35a2.76,2.76,0,0,1-.08.92h7.81c-1.41-.12-1.7-1-1.67-2.24.08-3,.08-6,.1-9,0-1.29,0-2.59,0-3.88,1.13,2.54,2,5.12,2.92,7.68s1.53,5.11,2.61,7.54l.4-.08,4.74-15c.24,4.65.25,9.25.22,13.84a4,4,0,0,1-.38,1.16h3.47a5.91,5.91,0,0,1-.37-1.42c0-4.56,0-9.12,0-13.67a7.18,7.18,0,0,1,.51-1.82h-3.39l-4,12.8c-.23-.6-.35-.88-.44-1.18-1.14-3.56-2.27-7.12-3.45-10.67-.13-.38-.48-.94-.78-1a25,25,0,0,0-3,0,6.29,6.29,0,0,1,.42,1.5c0,4.48,0,9,0,13.43a4.67,4.67,0,0,1,0,.72c-.15,1-1,1-1.7,1.14s-1-.19-1.24-.91c-1.3-4.55-2.65-9.08-4-13.61C-39.44,80.75-39.71,80-40,79.22Zm96.14,17h9.09c-1.42-.13-1.7-1-1.66-2.25.08-3.08.07-6.15.11-9.23a7.66,7.66,0,0,1,.12-.84L73.94,96.39l.37-.22c0-4.75.05-9.5,0-14.25,0-1.37.24-2.23,1.73-2.36a1.33,1.33,0,0,0,.06-.31H72c1.85.61,1.86.61,1.86,2.52q0,4.56,0,9.12c0,.28-.06.55-.11,1L64.35,80.11c-.77-1-1.7-1.17-3.1-.5,1.93.2,2,1.54,2,2.85,0,3.92,0,7.84,0,11.76,0,1.11-.37,1.75-1.57,1.79l-5.84-7.09c.68-.22,1.28-.37,1.86-.6a4.53,4.53,0,0,0,2.64-6.15,4.8,4.8,0,0,0-3.9-2.64c-2.49-.25-5-.27-7.36-.38a5.25,5.25,0,0,1,.46,1.4q0,7.2,0,14.4a4.7,4.7,0,0,1-.41,1.31h3.77c-.76-.61-1-4.47-.54-7.82.45.26.93.39,1.17.7,1.24,1.61,2.47,3.24,3.59,4.93C58.12,95.54,58.05,95.6,56.18,96.23ZM-58.67,87.73h6.49c0,2.55,0,5,0,7.49,0,.35-.34.7-.51,1h3.58a6.19,6.19,0,0,1-.38-1.47c0-4.56,0-9.11,0-13.67a7.13,7.13,0,0,1,.5-1.8h-4.06c.86.7,1.26,5.64.73,8h-6.33c0-2.09,0-4.09,0-6.08a9.07,9.07,0,0,1,.46-1.9H-62c.21.39.57.75.57,1.12q.1,7.25.09,14.5a4.61,4.61,0,0,1-.42,1.31h3.65c-.17-.35-.5-.73-.51-1.1C-58.7,92.72-58.67,90.28-58.67,87.73Zm175.58,8.56a8.22,8.22,0,0,0,8.63-8.51,8.38,8.38,0,0,0-8.74-8.72,8.25,8.25,0,0,0-8.67,8.6C108.12,92.79,111.67,96.28,116.91,96.28Zm-133.27-.18c.45-1.25,1.19-1.24,2.14-.74a7.65,7.65,0,0,0,4.5.9c2-.22,3.64-1,4.42-3,.65-1.68,0-3.39-1.74-4.82-1-.77-2.08-1.32-3.09-2a18.52,18.52,0,0,1-2.8-2.21A2.64,2.64,0,0,1-13.4,81a2.61,2.61,0,0,1,2.71-1.36,3.55,3.55,0,0,1,3.43,2.51c.2.53.38,1.06.57,1.59l.21-.06V79l-.84,1.33a28.71,28.71,0,0,0-3.18-1.2A5,5,0,0,0-16,81.64c-.85,1.88-.22,3.8,1.82,5.28,1,.7,2.05,1.23,3,1.91a14.17,14.17,0,0,1,2.86,2.29,2.83,2.83,0,0,1-1.36,4.4,4.83,4.83,0,0,1-6.17-2.8c-.12-.3-.27-.59-.4-.89l-.16.06ZM6.95,79.49C9.06,80,9,81.48,9,83c0,3.52,0,7,0,10.55,0,1.25.2,2.57-1.61,2.69h3.91c-1.81-.4-2-.55-1.94-2.15q0-4.62.09-9.23A6.34,6.34,0,0,1,9.63,84L19.68,96.38l.31-.16c0-.34,0-.68.05-1,0-4.64,0-9.28,0-13.91,0-1,.28-1.53,1.3-1.58a1.65,1.65,0,0,0,.49-.19l0-.18h-4c1.79.63,1.79.63,1.79,2.71q0,1.68,0,3.36V92c-.45-.52-.71-.8-1-1.1L10.24,80.28C9.3,79.1,9,79,6.95,79.49ZM128.5,84.16l.29-.05,9.94,12.27.36-.17q0-.63,0-1.27c0-4.56,0-9.12,0-13.67,0-1,.31-1.52,1.32-1.56a1.54,1.54,0,0,0,.47-.2l0-.17h-4c1.85.6,1.85.6,1.85,2.61q0,2.46,0,4.92c0,1.61,0,3.23,0,5.12-.46-.53-.72-.82-1-1.12-2.79-3.5-5.64-6.94-8.31-10.53-.94-1.26-1.94-1.13-3.2-.9,1.87.51,1.88,2,1.88,3.43q0,5.28,0,10.55c0,1.25.3,2.65-1.59,2.79h3.58c-1.32-.09-1.69-.84-1.64-2,.07-1.76.08-3.51.09-5.27C128.51,87.32,128.5,85.74,128.5,84.16ZM40.54,96v-8.4c1.22,0,2.37-.05,3.52,0a1.37,1.37,0,0,1,.9.71,13.06,13.06,0,0,1,.62,1.91l.15-.05v-5.3A9.87,9.87,0,0,0,45,86.62c-.15.31-.49.73-.77.74-1.22.08-2.44,0-3.68,0V79.48a16.4,16.4,0,0,0,2.06,0c2.14-.28,3.88.1,4.49,2.52,0,0,.13,0,.31.08l-.33-2.78h-9.6a3.44,3.44,0,0,1,.35,1q.05,7.49,0,15c0,.33-.29.66-.41.91h9.67l.31-2.84a15.55,15.55,0,0,0-1.3,2,1.56,1.56,0,0,1-1,.69C43.62,96.09,42.11,96,40.54,96Zm117.87,0a3.4,3.4,0,0,1-.09-.49c0-5,0-10.08,0-15.11,0-.39.34-.79.5-1.15h-3.69a5,5,0,0,1,.36,1.27q0,7.32,0,14.63a3.68,3.68,0,0,1-.3,1h9.74l.25-2.73A17,17,0,0,0,164.1,95a2.77,2.77,0,0,1-1.43,1A42,42,0,0,1,158.41,96Zm-69.62.22a6.21,6.21,0,0,1-.62-1.13c-1.5-5-3-10-4.45-15-.1-.34-.27-.66-.53-1.31-.31.63-.49.91-.6,1.22-1.57,4.5-3.13,9-4.67,13.52-.42,1.23-.81,2.42-2.36,2.62h3.82c-1.69-.42-1.76-.54-1.24-2.06.43-1.28.88-2.55,1.34-3.9,1.28,0,2.56,0,3.83,0a1,1,0,0,1,.78.5c.52,1.59,1,3.19,1.4,4.8,0,.18-.17.43-.26.66Zm55.21,0c-1.45-.36-1.57-.55-1.11-1.9s.93-2.68,1.4-4c1.31,0,2.55,0,3.79,0a1.13,1.13,0,0,1,.84.58c.49,1.51.91,3,1.32,4.58a2,2,0,0,1-.13.78h3.5a6.14,6.14,0,0,1-.66-1.18c-1.49-4.94-2.94-9.89-4.41-14.84-.1-.35-.26-.68-.38-1l-.35,0c-.16.37-.34.73-.47,1.1-1.57,4.5-3.15,9-4.68,13.52-.4,1.18-.83,2.25-2.28,2.42Zm-213.28-4c-1.23-4.13-2.38-8-3.48-11.8-.08-.29.24-.69.36-1h-4a6.71,6.71,0,0,1,.91,1.46c1.47,4.82,2.89,9.66,4.34,14.49a11.38,11.38,0,0,0,.63,1.32c.28-.71.43-1.06.56-1.42,1.67-4.68,3.36-9.35,5-14a2.07,2.07,0,0,1,1.55-1.45c.22-.06.43-.15.65-.22l0-.19h-4a.62.62,0,0,0,.39.18c1.38.35,1.41.42.94,1.77l-1.34,3.82Zm99.91,4.07a6.86,6.86,0,0,1-.35-1.5c0-4.67,0-9.35,0-14V79.49c1.27,0,2.54-.33,3.46.1s1.38,1.59,2.13,2.55l-.33-2.81H22.36l-.29,2.84c.75-1,1.23-2.19,2.08-2.57s2.24-.1,3.44-.1c0,.6,0,1,0,1.47,0,4.75,0,9.51-.07,14.26a3.32,3.32,0,0,1-.37,1Zm61.9-16.69a1.24,1.24,0,0,1,.09.29c0,5.11,0,10.23,0,15.34a3.26,3.26,0,0,1-.38,1h3.49a6.17,6.17,0,0,1-.36-1.43c0-4.71,0-9.43,0-14.15,0-.35,0-.7.07-1.16,1.17,0,2.43-.33,3.34.09s1.42,1.59,2.14,2.47a13,13,0,0,1-.13-1.65c0-1-.38-1.2-1.29-1.18-2.6.06-5.19,0-7.79,0H87.41l-.29,3.12C89.14,79.25,89.14,79.25,92.52,79.56ZM5.69,96.26a7.4,7.4,0,0,1-.29-1.41c0-4.56,0-9.11,0-13.67a7.79,7.79,0,0,1,.46-1.83H2.09a4.21,4.21,0,0,1,.48,1.26q.07,7.2,0,14.39a4.8,4.8,0,0,1-.36,1.26Zm100.59,0a6.61,6.61,0,0,1-.32-1.42c0-4.52,0-9,0-13.55a8.88,8.88,0,0,1,.44-1.93h-3.74a4.23,4.23,0,0,1,.47,1.26q.07,7.14,0,14.27a5.66,5.66,0,0,1-.35,1.36Zm2.53,13.91v-4.8l3.83,4.8.4-.08v-6.78h-.64c.71,1.56.18,3.18.23,4.8-1.22-1.34-2.29-2.75-3.41-4.11a6.1,6.1,0,0,0-1.14-.87c.74,1.25.27,2.49.35,3.62s0,2.25,0,3.41Zm-92.25-4.75,4,4.94c.15-2.56-.23-4.84.24-7h-.58v4.8c-1.16-1.48-2.27-2.92-3.42-4.33a3.2,3.2,0,0,0-.88-.57v7l.74,0C16,108.61,16.4,107,16.56,105.41ZM48,103.29v4.83c-1.16-1.47-2.27-2.92-3.42-4.33a3.34,3.34,0,0,0-.89-.58v7l.76,0c-.67-1.54-.2-3.12-.07-4.75l4,5c.1-2.59-.2-4.85.19-7.09Zm8.64,0v4.83c-1.16-1.47-2.26-2.91-3.41-4.32a3.13,3.13,0,0,0-.84-.57,42.79,42.79,0,0,1,.06,6.91H53c-.45-1.56-.2-3.11-.18-5L57,110.38c.12-2.57-.22-4.84.22-7.08Zm-66.55,3.34,2.09.67v-1.13l-2,.59v-3.5l2.53.58,0-.54h-3.76v6.85h3.78l.05-1.07c-.7,1.35-1.67.87-2.61.85Zm-15.84,0,2.05.65V106.2l-2,.55v-3.49l2.53.58,0-.53h-3.75v6.84h1.21ZM86.18,103.2v7l1.18-.07v-6.88l2.11.65c-.18-.29-.47-.6-.77-.61-1.47-.05-2.94,0-4.49,0L84,104Zm-75.24.09v6.93l1.2-.07v-6.85Zm27.83,0v6.88H40v-6.88Zm54.31,0v6.84H94.3v-6.84ZM4.61,110.2v-6.91H3.37v6.88c1.06,0,2.05-.05,3,0,.79.06,1-.26.93-.7Zm-7.21,0v-7l-1.24.05v6.9c1.11,0,2.18.05,3.25,0,.29,0,.54-.46.7-.59Zm75.23.28c.48-1.12.82-1.8.38-2.81a34.31,34.31,0,0,1-1.3-4.37h-1.2Zm-89.88-.13c-.3-.32-1-.7-1-1.15-.2-1.94-.23-3.9-.32-5.9h-1c0,1.55,0,3,0,4.54C-19.51,109.63-18.84,110.29-17.25,110.35Zm1.93-2c.36-1.69-.36-3.44.43-5.06h-.8C-15,105-15.62,106.72-15.32,108.37Z"/><path class="cls-1" d="M-92,128.69H182.09V-17.71c.08,0,.23.08.23.12,0,.32,0,.64,0,1V128.93H-90.91A5.21,5.21,0,0,1-92,128.69Z"/><path class="cls-1" d="M59.78,24.5,58,23.89l.11.36c-.48.43-1,.83-1.42,1.31a3.21,3.21,0,0,0-.59,1.06A9.67,9.67,0,0,0,55.85,28l-1.93-3.64a24,24,0,0,0-2.47.18c-.84.14-1.48.49-.88,1.55.14.26,0,.68,0,1q-.35,2.57-.73,5.14a2,2,0,0,1-.26,1c-.17.18-.78.26-.91.12a7.24,7.24,0,0,1-1.3-1.81,1.55,1.55,0,0,0-1.58-.88c-2.1,0-2.75-.6-2.94-2.71,0-.12,0-.23-.24-.13l-2.68-2.29c-.7.1-1.15.68-1.38,1.71a17,17,0,0,0,.22,8.86c.12.41.22.82.4,1.49-3.11-5-2.77-13.3,2.69-18.88a15.44,15.44,0,0,1,21.69-.12L66,14.69c1.4-2.19,2.77-4.38,4.2-6.55a1.48,1.48,0,0,1,1-.65c3.12,0,6.23,0,9.74,0L44.79,63.94,7.42,6.58c1.56,0,2.9,0,4.23,0,2,0,3.92.17,5.87.13a1.91,1.91,0,0,1,1.89,1.08Q26,18.45,32.56,29.08q5.3,8.55,10.61,17.09c.42.67.8,1.37,1.3,2.26Zm2.81-6c-.9,1.94-2.67,1.21-4.16,1.31l-.09.38L61,22.58,63.26,19Z"/><path class="cls-1" d="M44.7,68.49,0,0A3.78,3.78,0,0,1,2.83,1.62q9,13.88,18,27.71l22.6,34.72c.39.6.77,1.21,1.23,1.94.51-.76,1-1.43,1.41-2.11L77.25,16C80,11.75,82.82,7.46,85.67,3.22A18.79,18.79,0,0,1,87.88.88l.38.32Z"/><path d="M62.58,18.48l.68.56L61,22.58l-2.66-2.42.09-.38C59.91,19.68,61.68,20.42,62.58,18.48Z"/></svg>