<svg id="Layer_1_FUELLING_INNOVATION_VHAMS_INTERNATIONAL_Hue_Saturation_2_LOGO_ONLY_Brightness_Contrast_1_LOGO_ONLY_copy_Hue_Saturation_1_copy_Image" data-name="Layer 1 + FUELLING INNOVATION + VHAMS INTERNATIONAL + Hue/Saturation 2 + LOGO ONLY + Brightness/Contrast 1 + LOGO ONLY copy + Hue/Saturation 1 copy Image" xmlns="http://www.w3.org/2000/svg" viewBox="0 0 274.32 146.64"><defs><style>.cls-1{fill:#fff;}</style></defs><title>Logo With Name new</title><path d="M.24,146.64V.24H274.32v146.4ZM121,128c-2.51-.22-3.32-1-3.49-3.09a5.32,5.32,0,0,1,1.16-3.56l3.68.95c-1.09-1.29-2.35-1.23-3.66-.93a8.9,8.9,0,0,0-1.88,1.64,3.19,3.19,0,0,0,.25,3.77c1,1.4,2.39,1.51,3.91,1.19.41-.3,1-.53,1.19-.93a5.49,5.49,0,0,0,.29-2.32c0-.2-.86-.34-1.32-.51A5,5,0,0,1,121,128Zm50.29-4.6-.46,1.39-.42.88c.7.11,1.59,0,2,.37s.45,1.36.65,2.06h1.21l-2-6.9-.31.05Zm23.28,4.5a4.47,4.47,0,0,0,1.07-.45,3.65,3.65,0,0,0,.72-4.85,3.77,3.77,0,0,0-4.7-1,3.62,3.62,0,0,0-1.41,4.59,3.32,3.32,0,0,0,4.37,1.71Zm-39.32-6.52a3.33,3.33,0,0,0-2.21,4.43c.74,2.14,2.76,2.77,4.76,2.06a3.46,3.46,0,0,0,1.86-4.49,3.35,3.35,0,0,0-4.46-2ZM152,42.46l-15.3,23.92c-.51-.88-.89-1.58-1.3-2.26Q130.1,55.57,124.79,47,118.2,36.4,111.64,25.74a1.91,1.91,0,0,0-1.89-1.08c-2,0-3.92-.09-5.87-.13-1.33,0-2.67,0-4.23,0L137,81.89l36.17-56.48c-3.5,0-6.62,0-9.74,0a1.48,1.48,0,0,0-1,.65c-1.43,2.17-2.8,4.36-4.2,6.55l-2.51,3.91a15.44,15.44,0,0,0-21.69.12c-5.47,5.59-5.81,13.93-2.69,18.88-.18-.67-.27-1.08-.4-1.49a17,17,0,0,1-.22-8.86c.23-1,.69-1.61,1.38-1.71l2.68,2.29c.21-.1.23,0,.24.13.19,2.12.84,2.68,2.94,2.71a1.55,1.55,0,0,1,1.58.88,7.24,7.24,0,0,0,1.3,1.81c.13.14.74.06.91-.12a2,2,0,0,0,.26-1q.38-2.57.73-5.14c0-.34.16-.77,0-1-.6-1.07,0-1.42.88-1.55a24,24,0,0,1,2.47-.18l1.93,3.64a9.67,9.67,0,0,1,.27-1.37,3.21,3.21,0,0,1,.59-1.06c.43-.48.94-.88,1.42-1.31l-.11-.36Zm-15.07,44,43.56-67.29-.38-.32a18.79,18.79,0,0,0-2.22,2.34c-2.85,4.24-5.62,8.53-8.41,12.81L138.31,81.84c-.44.68-.9,1.35-1.41,2.11-.46-.73-.84-1.34-1.23-1.94l-22.6-34.72q-9-13.85-18-27.71A3.78,3.78,0,0,0,92.23,18ZM52.27,97.17h-.38a8.39,8.39,0,0,0-.44.91c-1.55,4.47-3.11,8.93-4.64,13.41-.43,1.25-.77,2.52-2.37,2.68h3.92c-1.77-.37-1.87-.53-1.38-2s.9-2.62,1.37-4c1.28,0,2.52,0,3.75,0a1.23,1.23,0,0,1,.9.66c.48,1.43.88,2.89,1.26,4.35a2.76,2.76,0,0,1-.08.92H62c-1.41-.12-1.7-1-1.67-2.24.08-3,.08-6,.1-9,0-1.29,0-2.59,0-3.88,1.13,2.54,2,5.12,2.92,7.68s1.53,5.11,2.61,7.54l.4-.08,4.74-15c.24,4.65.25,9.25.22,13.84a4,4,0,0,1-.38,1.16H74.4a5.91,5.91,0,0,1-.37-1.42c0-4.56,0-9.12,0-13.67a7.18,7.18,0,0,1,.51-1.82H71.15l-4,12.8c-.23-.6-.35-.88-.44-1.18-1.14-3.56-2.27-7.12-3.45-10.67-.13-.38-.48-.94-.78-1a25,25,0,0,0-3,0,6.29,6.29,0,0,1,.42,1.5c0,4.48,0,9,0,13.43a4.67,4.67,0,0,1,0,.72c-.15,1-1,1-1.7,1.14s-1-.19-1.24-.91c-1.3-4.55-2.65-9.08-4-13.61C52.79,98.7,52.52,97.94,52.27,97.17Zm96.14,17h9.09c-1.42-.13-1.7-1-1.66-2.25.08-3.08.07-6.15.11-9.23a7.66,7.66,0,0,1,.12-.84l10.11,12.47.37-.22c0-4.75.05-9.5,0-14.25,0-1.37.24-2.23,1.73-2.36a1.33,1.33,0,0,0,.06-.31h-4.06c1.85.61,1.86.61,1.86,2.52q0,4.56,0,9.12c0,.28-.06.55-.11,1l-9.39-11.79c-.77-1-1.7-1.17-3.1-.5,1.93.2,2,1.54,2,2.85,0,3.92,0,7.84,0,11.76,0,1.11-.37,1.75-1.57,1.79l-5.84-7.09c.68-.22,1.28-.37,1.86-.6a4.53,4.53,0,0,0,2.64-6.15,4.8,4.8,0,0,0-3.9-2.64c-2.49-.25-5-.27-7.36-.38a5.25,5.25,0,0,1,.46,1.4q0,7.2,0,14.4a4.7,4.7,0,0,1-.41,1.31h3.77c-.76-.61-1-4.47-.54-7.82.45.26.93.39,1.17.7,1.24,1.61,2.47,3.24,3.59,4.93C150.35,113.49,150.28,113.56,148.41,114.19ZM33.56,105.68H40c0,2.55,0,5,0,7.49,0,.35-.34.7-.51,1h3.58a6.19,6.19,0,0,1-.38-1.47c0-4.56,0-9.11,0-13.67a7.13,7.13,0,0,1,.5-1.8H39.16c.86.7,1.26,5.64.73,8H33.56c0-2.09,0-4.09,0-6.08a9.07,9.07,0,0,1,.46-1.9H30.19c.21.39.57.75.57,1.12q.1,7.25.09,14.5a4.61,4.61,0,0,1-.42,1.31h3.65c-.17-.35-.5-.73-.51-1.1C33.53,110.67,33.56,108.23,33.56,105.68Zm175.58,8.56a8.22,8.22,0,0,0,8.63-8.51A8.38,8.38,0,0,0,209,97a8.25,8.25,0,0,0-8.67,8.6C200.36,110.75,203.9,114.24,209.14,114.24Zm-133.27-.18c.45-1.25,1.19-1.24,2.14-.74a7.65,7.65,0,0,0,4.5.9c2-.22,3.64-1,4.42-3,.65-1.68,0-3.39-1.74-4.82-1-.77-2.08-1.32-3.09-2a18.52,18.52,0,0,1-2.8-2.21A2.64,2.64,0,0,1,78.83,99a2.61,2.61,0,0,1,2.71-1.36A3.55,3.55,0,0,1,85,100.14c.2.53.38,1.06.57,1.59l.21-.06V97l-.84,1.33a28.71,28.71,0,0,0-3.18-1.2,5,5,0,0,0-5.46,2.46c-.85,1.88-.22,3.8,1.82,5.28,1,.7,2.05,1.23,3,1.91A14.17,14.17,0,0,1,84,109.08a2.83,2.83,0,0,1-1.36,4.4,4.83,4.83,0,0,1-6.17-2.8c-.12-.3-.27-.59-.4-.89l-.16.06ZM99.18,97.45c2.11.48,2.07,2,2.07,3.47,0,3.52,0,7,0,10.55,0,1.25.2,2.57-1.61,2.69h3.91c-1.81-.4-2-.55-1.94-2.15q0-4.62.09-9.23a6.34,6.34,0,0,1,.16-.89l10.06,12.43.31-.16c0-.34,0-.68.05-1,0-4.64,0-9.28,0-13.91,0-1,.28-1.53,1.3-1.58a1.65,1.65,0,0,0,.49-.19l0-.18h-4c1.79.63,1.79.63,1.79,2.71q0,1.68,0,3.36v6.57c-.45-.52-.71-.8-1-1.1l-8.43-10.59C101.53,97.06,101.19,97,99.18,97.45Zm121.55,4.67.29-.05L231,114.33l.36-.17q0-.63,0-1.27c0-4.56,0-9.12,0-13.67,0-1,.31-1.52,1.32-1.56a1.54,1.54,0,0,0,.47-.2l0-.17h-4c1.85.6,1.85.6,1.85,2.61q0,2.46,0,4.92c0,1.61,0,3.23,0,5.12-.46-.53-.72-.82-1-1.12-2.79-3.5-5.64-6.94-8.31-10.53-.94-1.26-1.94-1.13-3.2-.9,1.87.51,1.88,2,1.88,3.43q0,5.28,0,10.55c0,1.25.3,2.65-1.59,2.79h3.58c-1.32-.09-1.69-.84-1.64-2,.07-1.76.08-3.51.09-5.27C220.75,105.27,220.73,103.69,220.73,102.12Zm-88,11.89v-8.4c1.22,0,2.37-.05,3.52,0a1.37,1.37,0,0,1,.9.71,13.06,13.06,0,0,1,.62,1.91l.15-.05v-5.3a9.87,9.87,0,0,0-.77,1.69c-.15.31-.49.73-.77.74-1.22.08-2.44,0-3.68,0V97.44a16.4,16.4,0,0,0,2.06,0c2.14-.28,3.88.1,4.49,2.52,0,0,.13,0,.31.08l-.33-2.78h-9.6a3.44,3.44,0,0,1,.35,1q.05,7.49,0,15c0,.33-.29.66-.41.91h9.67l.31-2.84a15.55,15.55,0,0,0-1.3,2,1.56,1.56,0,0,1-1,.69C135.85,114,134.34,114,132.77,114Zm117.87,0a3.4,3.4,0,0,1-.09-.49c0-5,0-10.08,0-15.11,0-.39.34-.79.5-1.15h-3.69a5,5,0,0,1,.36,1.27q0,7.32,0,14.63a3.68,3.68,0,0,1-.3,1h9.74l.25-2.73a17,17,0,0,0-1.09,1.48,2.77,2.77,0,0,1-1.43,1A42,42,0,0,1,250.64,114Zm-69.62.22a6.21,6.21,0,0,1-.62-1.13c-1.5-5-3-10-4.45-15-.1-.34-.27-.66-.53-1.31-.31.63-.49.91-.6,1.22-1.57,4.5-3.13,9-4.67,13.52-.42,1.23-.81,2.42-2.36,2.62h3.82c-1.69-.42-1.76-.54-1.24-2.06.43-1.28.88-2.55,1.34-3.9,1.28,0,2.56,0,3.83,0a1,1,0,0,1,.78.5c.52,1.59,1,3.19,1.4,4.8,0,.18-.17.43-.26.66Zm55.21,0c-1.45-.36-1.57-.55-1.11-1.9s.93-2.68,1.4-4c1.31,0,2.55,0,3.79,0a1.13,1.13,0,0,1,.84.58c.49,1.51.91,3,1.32,4.58a2,2,0,0,1-.13.78h3.5a6.14,6.14,0,0,1-.66-1.18c-1.49-4.94-2.94-9.89-4.41-14.84-.1-.35-.26-.68-.38-1l-.35,0c-.16.37-.34.73-.47,1.1-1.57,4.5-3.15,9-4.68,13.52-.4,1.18-.83,2.25-2.28,2.42Zm-213.28-4c-1.23-4.13-2.38-8-3.48-11.8-.08-.29.24-.69.36-1h-4a6.71,6.71,0,0,1,.91,1.46c1.47,4.82,2.89,9.66,4.34,14.49a11.38,11.38,0,0,0,.63,1.32c.28-.71.43-1.06.56-1.42,1.67-4.68,3.36-9.35,5-14a2.07,2.07,0,0,1,1.55-1.45c.22-.06.43-.15.65-.22l0-.19h-4a.62.62,0,0,0,.39.18c1.38.35,1.41.42.94,1.77L25.45,103Zm99.91,4.07a6.86,6.86,0,0,1-.35-1.5c0-4.67,0-9.35,0-14V97.45c1.27,0,2.54-.33,3.46.1s1.38,1.59,2.13,2.55l-.33-2.81H114.59l-.29,2.84c.75-1,1.23-2.19,2.08-2.57s2.24-.1,3.44-.1c0,.6,0,1,0,1.47,0,4.75,0,9.51-.07,14.26a3.32,3.32,0,0,1-.37,1Zm61.9-16.69a1.24,1.24,0,0,1,.09.29c0,5.11,0,10.23,0,15.34a3.26,3.26,0,0,1-.38,1h3.49a6.17,6.17,0,0,1-.36-1.43c0-4.71,0-9.43,0-14.15,0-.35,0-.7.07-1.16,1.17,0,2.43-.33,3.34.09s1.42,1.59,2.14,2.47a13,13,0,0,1-.13-1.65c0-1-.38-1.2-1.29-1.18-2.6.06-5.19,0-7.79,0h-4.23l-.29,3.12C181.37,97.21,181.37,97.21,184.75,97.52Zm-86.83,16.7a7.4,7.4,0,0,1-.29-1.41c0-4.56,0-9.11,0-13.67a7.79,7.79,0,0,1,.46-1.83H94.32a4.21,4.21,0,0,1,.48,1.26q.07,7.2,0,14.39a4.8,4.8,0,0,1-.36,1.26Zm100.59,0a6.61,6.61,0,0,1-.32-1.42c0-4.52,0-9,0-13.55a8.88,8.88,0,0,1,.44-1.93h-3.74a4.23,4.23,0,0,1,.47,1.26q.07,7.14,0,14.27a5.66,5.66,0,0,1-.35,1.36ZM201,128.12v-4.8l3.83,4.8.4-.08v-6.78h-.64c.71,1.56.18,3.18.23,4.8-1.22-1.34-2.29-2.75-3.41-4.11a6.1,6.1,0,0,0-1.14-.87c.74,1.25.27,2.49.35,3.62s0,2.25,0,3.41Zm-92.25-4.75,4,4.94c.15-2.56-.23-4.84.24-7h-.58v4.8c-1.16-1.48-2.27-2.92-3.42-4.33a3.2,3.2,0,0,0-.88-.57v7l.74,0C108.24,126.56,108.63,125,108.79,123.36Zm31.46-2.12v4.83c-1.16-1.47-2.27-2.92-3.42-4.33a3.34,3.34,0,0,0-.89-.58v7l.76,0c-.67-1.54-.2-3.12-.07-4.75l4,5c.1-2.59-.2-4.85.19-7.09Zm8.64,0v4.83c-1.16-1.47-2.26-2.91-3.41-4.32a3.13,3.13,0,0,0-.84-.57,42.79,42.79,0,0,1,.06,6.91h.55c-.45-1.56-.2-3.11-.18-5l4.17,5.23c.12-2.57-.22-4.84.22-7.08Zm-66.55,3.34,2.09.67v-1.13l-2,.59v-3.5l2.53.58,0-.54H81.11v6.85h3.78l.05-1.07c-.7,1.35-1.67.87-2.61.85Zm-15.84,0,2.05.65v-1.08l-2,.55v-3.49l2.53.58,0-.53H65.29v6.84H66.5Zm111.91-3.43v7l1.18-.07v-6.88l2.11.65c-.18-.29-.47-.6-.77-.61-1.47-.05-2.94,0-4.49,0l-.16.74Zm-75.24.09v6.93l1.2-.07v-6.85Zm27.83,0v6.88h1.2v-6.88Zm54.31,0v6.84h1.23v-6.84Zm-88.46,6.91v-6.91H95.6v6.88c1.06,0,2.05-.05,3,0,.79.06,1-.26.93-.7Zm-7.21,0v-7l-1.24.05v6.9c1.11,0,2.18.05,3.25,0,.29,0,.54-.46.7-.59Zm75.23.28c.48-1.12.82-1.8.38-2.81a34.31,34.31,0,0,1-1.3-4.37h-1.2ZM75,128.31c-.3-.32-1-.7-1-1.15-.2-1.94-.23-3.9-.32-5.9h-1c0,1.55,0,3,0,4.54C72.72,127.58,73.39,128.24,75,128.31Zm1.93-2c.36-1.69-.36-3.44.43-5.06h-.8C77.21,122.92,76.61,124.67,76.91,126.32Z" transform="translate(-0.24 -0.24)"/><path class="cls-1" d="M.24,146.64H274.32V.24c.08,0,.23.08.23.12,0,.32,0,.64,0,1V146.88H1.32A5.21,5.21,0,0,1,.24,146.64Z" transform="translate(-0.24 -0.24)"/><path class="cls-1" d="M152,42.46l-1.76-.61.11.36c-.48.43-1,.83-1.42,1.31a3.21,3.21,0,0,0-.59,1.06,9.67,9.67,0,0,0-.27,1.37l-1.93-3.64a24,24,0,0,0-2.47.18c-.84.14-1.48.49-.88,1.55.14.26,0,.68,0,1q-.35,2.57-.73,5.14a2,2,0,0,1-.26,1c-.17.18-.78.26-.91.12a7.24,7.24,0,0,1-1.3-1.81,1.55,1.55,0,0,0-1.58-.88c-2.1,0-2.75-.6-2.94-2.71,0-.12,0-.23-.24-.13l-2.68-2.29c-.7.1-1.15.68-1.38,1.71a17,17,0,0,0,.22,8.86c.12.41.22.82.4,1.49-3.11-5-2.77-13.3,2.69-18.88a15.44,15.44,0,0,1,21.69-.12l2.51-3.91c1.4-2.19,2.77-4.38,4.2-6.55a1.48,1.48,0,0,1,1-.65c3.12,0,6.23,0,9.74,0L137,81.89,99.65,24.53c1.56,0,2.9,0,4.23,0,2,0,3.92.17,5.87.13a1.91,1.91,0,0,1,1.89,1.08Q118.19,36.4,124.79,47q5.3,8.55,10.61,17.09c.42.67.8,1.37,1.3,2.26Zm2.81-6c-.9,1.94-2.67,1.21-4.16,1.31l-.09.38,2.66,2.42L155.49,37Z" transform="translate(-0.24 -0.24)"/><path class="cls-1" d="M136.93,86.45,92.23,18a3.78,3.78,0,0,1,2.83,1.62q9,13.88,18,27.71L135.67,82c.39.6.77,1.21,1.23,1.94.51-.76,1-1.43,1.41-2.11L169.48,34c2.79-4.28,5.56-8.57,8.41-12.81a18.79,18.79,0,0,1,2.22-2.34l.38.32Z" transform="translate(-0.24 -0.24)"/><path class="cls-1" d="M52.27,97.17c.25.77.52,1.53.75,2.31,1.34,4.53,2.69,9.07,4,13.61.2.72.51,1,1.24.91s1.55-.16,1.7-1.14a4.67,4.67,0,0,0,0-.72c0-4.48,0-9,0-13.43a6.29,6.29,0,0,0-.42-1.5,25,25,0,0,1,3,0c.3,0,.66.59.78,1,1.17,3.55,2.3,7.11,3.45,10.67.1.3.22.58.44,1.18l4-12.8h3.39A7.18,7.18,0,0,0,74,99.1c0,4.56,0,9.12,0,13.67a5.91,5.91,0,0,0,.37,1.42H70.93a4,4,0,0,0,.38-1.16c0-4.6,0-9.19-.22-13.84l-4.74,15-.4.08c-1.09-2.43-1.71-5-2.61-7.54s-1.79-5.14-2.92-7.68c0,1.29,0,2.59,0,3.88,0,3,0,6-.1,9,0,1.25.26,2.11,1.67,2.24H54.18a2.76,2.76,0,0,0,.08-.92c-.38-1.46-.78-2.92-1.26-4.35a1.23,1.23,0,0,0-.9-.66c-1.23-.08-2.47,0-3.75,0-.47,1.35-.93,2.66-1.37,4s-.39,1.59,1.38,2H44.43c1.61-.16,1.95-1.43,2.37-2.68,1.52-4.48,3.08-8.95,4.64-13.41a8.39,8.39,0,0,1,.44-.91Zm-1.5,4.21-2.26,6.54h4.16Z" transform="translate(-0.24 -0.24)"/><path class="cls-1" d="M148.41,114.19c1.87-.63,1.95-.69,1-2.18-1.12-1.69-2.35-3.32-3.59-4.93-.24-.31-.72-.44-1.17-.7-.51,3.35-.22,7.21.54,7.82h-3.77a4.7,4.7,0,0,0,.41-1.31q0-7.2,0-14.4a5.25,5.25,0,0,0-.46-1.4c2.37.11,4.88.14,7.36.38a4.8,4.8,0,0,1,3.9,2.64,4.53,4.53,0,0,1-2.64,6.15c-.57.23-1.17.38-1.86.6l5.84,7.09c1.2,0,1.58-.67,1.57-1.79,0-3.92,0-7.84,0-11.76,0-1.31-.07-2.65-2-2.85,1.4-.67,2.34-.47,3.1.5L166,109.86c.05-.46.11-.73.11-1q0-4.56,0-9.12c0-1.91,0-1.91-1.86-2.52h4.06a1.33,1.33,0,0,1-.06.31c-1.48.13-1.75,1-1.73,2.36.09,4.75,0,9.5,0,14.25l-.37.22-10.11-12.47a7.66,7.66,0,0,0-.12.84c0,3.08,0,6.16-.11,9.23,0,1.25.25,2.12,1.66,2.25Zm-3.92-7.92c2.21.18,4.14-.06,5.27-2.11a4.37,4.37,0,0,0-.2-4.84c-1.23-1.79-3.06-2-5.08-1.81Z" transform="translate(-0.24 -0.24)"/><path class="cls-1" d="M33.56,105.68c0,2.55,0,5,0,7.43,0,.38.34.75.51,1.1H30.43a4.61,4.61,0,0,0,.42-1.31q0-7.25-.09-14.5c0-.36-.36-.72-.57-1.12H34a9.07,9.07,0,0,0-.46,1.9c-.06,2,0,4,0,6.08h6.33c.53-2.36.13-7.3-.73-8h4.06a7.13,7.13,0,0,0-.5,1.8c0,4.56,0,9.11,0,13.67a6.19,6.19,0,0,0,.38,1.47H39.51c.17-.34.5-.68.51-1,0-2.47,0-4.94,0-7.49Z" transform="translate(-0.24 -0.24)"/><path class="cls-1" d="M209.14,114.24c-5.23,0-8.78-3.49-8.77-8.62A8.25,8.25,0,0,1,209,97a8.38,8.38,0,0,1,8.74,8.72A8.22,8.22,0,0,1,209.14,114.24Zm6.23-7.65-.31-.09a11.26,11.26,0,0,0-2-6.75,5.1,5.1,0,0,0-9,.61,11,11,0,0,0-.95,7,8.5,8.5,0,0,0,2.59,5.24,5.16,5.16,0,0,0,8.2-1.38A29.42,29.42,0,0,0,215.37,106.59Z" transform="translate(-0.24 -0.24)"/><path class="cls-1" d="M75.87,114.06v-4.2l.16-.06c.13.3.28.59.4.89a4.83,4.83,0,0,0,6.17,2.8,2.83,2.83,0,0,0,1.36-4.4,14.17,14.17,0,0,0-2.86-2.29c-1-.69-2.06-1.21-3-1.91-2-1.47-2.66-3.4-1.82-5.28a5,5,0,0,1,5.46-2.46,28.71,28.71,0,0,1,3.18,1.2L85.74,97v4.67l-.21.06c-.19-.53-.37-1.06-.57-1.59a3.55,3.55,0,0,0-3.43-2.51A2.61,2.61,0,0,0,78.83,99a2.64,2.64,0,0,0,.47,3.21,18.52,18.52,0,0,0,2.8,2.21c1,.71,2.13,1.27,3.09,2,1.79,1.42,2.39,3.14,1.74,4.82-.77,2-2.45,2.74-4.42,3a7.65,7.65,0,0,1-4.5-.9C77.06,112.82,76.32,112.81,75.87,114.06Z" transform="translate(-0.24 -0.24)"/><path class="cls-1" d="M99.18,97.45c2-.49,2.35-.39,3.29.79l8.43,10.59c.24.3.5.58,1,1.1v-6.57q0-1.68,0-3.36c0-2.08,0-2.08-1.79-2.71h4l0,.18a1.65,1.65,0,0,1-.49.19c-1,0-1.31.61-1.3,1.58,0,4.64,0,9.27,0,13.91,0,.34,0,.68-.05,1l-.31.16-10.06-12.43a6.34,6.34,0,0,0-.16.89q-.05,4.62-.09,9.23c0,1.59.13,1.75,1.94,2.15H99.64c1.81-.12,1.62-1.44,1.61-2.69,0-3.52,0-7,0-10.55C101.25,99.44,101.29,97.93,99.18,97.45Z" transform="translate(-0.24 -0.24)"/><path class="cls-1" d="M220.73,102.12c0,1.58,0,3.16,0,4.74,0,1.76,0,3.52-.09,5.27,0,1.19.32,1.95,1.64,2H218.7c1.89-.14,1.59-1.54,1.59-2.79q0-5.28,0-10.55c0-1.46,0-2.91-1.88-3.43,1.26-.23,2.26-.36,3.2.9,2.67,3.58,5.53,7,8.31,10.53.24.3.51.59,1,1.12,0-1.89,0-3.51,0-5.12s0-3.28,0-4.92c0-2,0-2-1.85-2.61h4l0,.17a1.54,1.54,0,0,1-.47.2c-1,0-1.33.58-1.32,1.56,0,4.56,0,9.11,0,13.67q0,.63,0,1.27l-.36.17L221,102.06Z" transform="translate(-0.24 -0.24)"/><path class="cls-1" d="M132.77,114c1.57,0,3.08,0,4.58,0a1.56,1.56,0,0,0,1-.69,15.55,15.55,0,0,1,1.3-2l-.31,2.84h-9.67c.12-.25.41-.58.41-.91q0-7.49,0-15a3.44,3.44,0,0,0-.35-1h9.6l.33,2.78c-.18,0-.3,0-.31-.08-.61-2.42-2.35-2.8-4.49-2.52a16.4,16.4,0,0,1-2.06,0v7.92c1.24,0,2.47,0,3.68,0,.28,0,.62-.43.77-.74a9.87,9.87,0,0,1,.77-1.69v5.3l-.15.05a13.06,13.06,0,0,0-.62-1.91,1.37,1.37,0,0,0-.9-.71c-1.14-.09-2.3,0-3.52,0Z" transform="translate(-0.24 -0.24)"/><path class="cls-1" d="M250.64,114a42,42,0,0,0,4.26,0,2.77,2.77,0,0,0,1.43-1,17,17,0,0,1,1.09-1.48l-.25,2.73h-9.74a3.68,3.68,0,0,0,.3-1q0-7.32,0-14.63a5,5,0,0,0-.36-1.27h3.69c-.17.37-.5.76-.5,1.15,0,5,0,10.08,0,15.11A3.4,3.4,0,0,0,250.64,114Z" transform="translate(-0.24 -0.24)"/><path class="cls-1" d="M181,114.22h-3.57c.1-.22.31-.47.26-.66-.43-1.61-.88-3.22-1.4-4.8a1,1,0,0,0-.78-.5c-1.27-.05-2.55,0-3.83,0-.46,1.35-.91,2.62-1.34,3.9-.51,1.51-.44,1.64,1.24,2.06h-3.82c1.55-.19,1.94-1.39,2.36-2.62,1.54-4.51,3.11-9,4.67-13.52.11-.31.29-.6.6-1.22.27.65.43,1,.53,1.31,1.49,5,3,10,4.45,15A6.21,6.21,0,0,0,181,114.22ZM176,108l-1.93-6.56L171.86,108Z" transform="translate(-0.24 -0.24)"/><path class="cls-1" d="M236.22,114.19h-3.63c1.46-.18,1.88-1.24,2.28-2.42,1.53-4.52,3.11-9,4.68-13.52.13-.38.31-.74.47-1.1l.35,0c.13.34.28.67.38,1,1.47,4.95,2.93,9.9,4.41,14.84a6.14,6.14,0,0,0,.66,1.18h-3.5a2,2,0,0,0,.13-.78c-.4-1.54-.82-3.07-1.32-4.58a1.13,1.13,0,0,0-.84-.58c-1.23-.07-2.47,0-3.79,0-.47,1.36-.95,2.7-1.4,4S234.77,113.82,236.22,114.19Zm2.7-12.79-2.25,6.52h4.16Z" transform="translate(-0.24 -0.24)"/><path class="cls-1" d="M22.95,110.14l2.51-7.1,1.34-3.82c.47-1.35.44-1.42-.94-1.77a.62.62,0,0,1-.39-.18h4l0,.19c-.22.07-.43.16-.65.22a2.07,2.07,0,0,0-1.55,1.45c-1.62,4.69-3.31,9.37-5,14-.13.36-.28.71-.56,1.42a11.38,11.38,0,0,1-.63-1.32c-1.45-4.83-2.87-9.66-4.34-14.49a6.71,6.71,0,0,0-.91-1.46h4c-.12.32-.44.72-.36,1C20.56,102.19,21.72,106,22.95,110.14Z" transform="translate(-0.24 -0.24)"/><path class="cls-1" d="M122.85,114.21h-3.47a3.32,3.32,0,0,0,.37-1c0-4.75.05-9.51.07-14.26,0-.44,0-.88,0-1.47-1.2,0-2.49-.33-3.44.1s-1.34,1.59-2.08,2.57l.29-2.84h13.16l.33,2.81c-.76-1-1.26-2.15-2.13-2.55s-2.19-.1-3.46-.1v1.24c0,4.68,0,9.35,0,14A6.86,6.86,0,0,0,122.85,114.21Z" transform="translate(-0.24 -0.24)"/><path class="cls-1" d="M184.75,97.52c-3.38-.31-3.38-.31-5.4,2.8l.29-3.12h4.23c2.6,0,5.2,0,7.79,0,.91,0,1.34.22,1.29,1.18a13,13,0,0,0,.13,1.65c-.72-.88-1.25-2.06-2.14-2.47s-2.17-.09-3.34-.09c0,.46-.07.81-.07,1.16,0,4.72,0,9.43,0,14.15a6.17,6.17,0,0,0,.36,1.43h-3.49a3.26,3.26,0,0,0,.38-1c0-5.11,0-10.23,0-15.34A1.24,1.24,0,0,0,184.75,97.52Z" transform="translate(-0.24 -0.24)"/><path class="cls-1" d="M97.92,114.21H94.49a4.8,4.8,0,0,0,.36-1.26q0-7.2,0-14.39a4.21,4.21,0,0,0-.48-1.26h3.77a7.79,7.79,0,0,0-.46,1.83c0,4.56,0,9.11,0,13.67A7.4,7.4,0,0,0,97.92,114.21Z" transform="translate(-0.24 -0.24)"/><path class="cls-1" d="M198.51,114.21h-3.45a5.66,5.66,0,0,0,.35-1.36q0-7.14,0-14.27a4.23,4.23,0,0,0-.47-1.26h3.74a8.88,8.88,0,0,0-.44,1.93c0,4.52,0,9,0,13.55A6.61,6.61,0,0,0,198.51,114.21Z" transform="translate(-0.24 -0.24)"/><path class="cls-1" d="M155.26,121.45a3.35,3.35,0,0,1,4.46,2,3.46,3.46,0,0,1-1.86,4.49c-2,.71-4,.08-4.76-2.06a3.33,3.33,0,0,1,2.21-4.43,4.41,4.41,0,0,0-.84,5.14,2.16,2.16,0,0,0,3.6.82,4.59,4.59,0,0,0,.28-4.52A2.53,2.53,0,0,0,155.26,121.45Z" transform="translate(-0.24 -0.24)"/><path class="cls-1" d="M194.67,127.89a3.32,3.32,0,0,1-4.37-1.71,3.62,3.62,0,0,1,1.41-4.59,3.77,3.77,0,0,1,4.7,1,3.65,3.65,0,0,1-.72,4.85,4.48,4.48,0,0,1-1.07.45,4.43,4.43,0,0,0,.45-5.64,2,2,0,0,0-3-.46,4.28,4.28,0,0,0-.6,4.56C192.08,127.78,192.73,128.09,194.67,127.89Z" transform="translate(-0.24 -0.24)"/><path class="cls-1" d="M201,128.12h-.41c0-1.15.09-2.28,0-3.41s.4-2.38-.35-3.62a6.1,6.1,0,0,1,1.14.87c1.12,1.37,2.19,2.77,3.41,4.11,0-1.62.49-3.25-.23-4.8h.64V128l-.4.08-3.83-4.8Z" transform="translate(-0.24 -0.24)"/><path class="cls-1" d="M108.79,123.36c-.15,1.62-.55,3.2.06,4.75l-.74,0v-7a3.2,3.2,0,0,1,.88.57c1.15,1.41,2.26,2.85,3.42,4.33v-4.8H113c-.46,2.2-.09,4.47-.24,7Z" transform="translate(-0.24 -0.24)"/><path class="cls-1" d="M140.25,121.24h.55c-.39,2.23-.09,4.5-.19,7.09l-4-5c-.12,1.63-.59,3.2.07,4.75l-.76,0v-7a3.34,3.34,0,0,1,.89.58c1.15,1.41,2.26,2.85,3.42,4.33Z" transform="translate(-0.24 -0.24)"/><path class="cls-1" d="M148.89,121.25h.57c-.44,2.23-.1,4.51-.22,7.08l-4.17-5.23c0,1.89-.27,3.45.18,5h-.55a42.79,42.79,0,0,0-.06-6.91,3.13,3.13,0,0,1,.84.57c1.15,1.4,2.26,2.85,3.41,4.32Z" transform="translate(-0.24 -0.24)"/><path class="cls-1" d="M82.34,124.59v3.3c.93,0,1.9.5,2.61-.85l-.05,1.07H81.11v-6.85h3.76l0,.54-2.53-.58v3.5l2-.59v1.13Z" transform="translate(-0.24 -0.24)"/><path class="cls-1" d="M66.5,124.59v3.51H65.29v-6.84H69l0,.53-2.53-.58v3.49l2-.55v1.08Z" transform="translate(-0.24 -0.24)"/><path class="cls-1" d="M178.41,121.16l-2.13.81.16-.74c1.55,0,3,0,4.49,0,.3,0,.58.32.77.61l-2.11-.65v6.88l-1.18.07Z" transform="translate(-0.24 -0.24)"/><path class="cls-1" d="M171.34,123.43l.58-2.16.31-.05,2,6.9h-1.21c-.19-.7-.2-1.59-.65-2.06s-1.27-.26-2-.37l.42-.88c-.07,1.37.89.45,1.56.52Z" transform="translate(-0.24 -0.24)"/><path class="cls-1" d="M103.16,121.24h1.2v6.85l-1.2.07Z" transform="translate(-0.24 -0.24)"/><path class="cls-1" d="M131,121.22h1.2v6.88H131Z" transform="translate(-0.24 -0.24)"/><path class="cls-1" d="M185.31,121.25h1.23v6.84h-1.23Z" transform="translate(-0.24 -0.24)"/><path class="cls-1" d="M96.84,128.16l2.73-.71c.08.44-.14.75-.93.7-1-.07-2,0-3,0v-6.88h1.24Z" transform="translate(-0.24 -0.24)"/><path class="cls-1" d="M89.63,128.15l2.71-.63c-.15.14-.41.57-.7.59-1.06.08-2.14,0-3.25,0v-6.9l1.24-.05Z" transform="translate(-0.24 -0.24)"/><path class="cls-1" d="M164.86,128.43l-2.12-7.18h1.2a34.31,34.31,0,0,0,1.3,4.37C165.69,126.63,165.35,127.31,164.86,128.43Z" transform="translate(-0.24 -0.24)"/><path class="cls-1" d="M75,128.31c-1.59-.07-2.26-.72-2.29-2.51,0-1.5,0-3,0-4.54h1c.09,2,.12,4,.32,5.9C74,127.6,74.68,128,75,128.31Z" transform="translate(-0.24 -0.24)"/><path class="cls-1" d="M121,128c-1.52.31-2.92.2-3.91-1.19a3.19,3.19,0,0,1-.25-3.77,8.9,8.9,0,0,1,1.88-1.64l0,0a5.36,5.36,0,0,0-1.16,3.57c.17,2.1,1,2.88,3.49,3.09Z" transform="translate(-0.24 -0.24)"/><path class="cls-1" d="M121,128a5,5,0,0,0,.13-3.8c.47.17,1.31.31,1.32.51a5.49,5.49,0,0,1-.29,2.32c-.15.4-.78.63-1.18.93Z" transform="translate(-0.24 -0.24)"/><path d="M171.34,123.43l1.09,1.9c-.66-.07-1.63.85-1.56-.52Z" transform="translate(-0.24 -0.24)"/><path class="cls-1" d="M76.91,126.32c-.3-1.65.3-3.41-.37-5.06h.8C76.55,122.88,77.28,124.63,76.91,126.32Z" transform="translate(-0.24 -0.24)"/><path class="cls-1" d="M118.74,121.39c1.31-.31,2.57-.37,3.66.93l-3.69-.95Z" transform="translate(-0.24 -0.24)"/><path d="M154.81,36.43l.68.56-2.26,3.55-2.66-2.42.09-.38C152.14,37.64,153.91,38.37,154.81,36.43Z" transform="translate(-0.24 -0.24)"/><path d="M50.77,101.38l1.9,6.54H48.51Z" transform="translate(-0.24 -0.24)"/><path d="M144.49,106.27V97.51c2-.22,3.85,0,5.08,1.81a4.37,4.37,0,0,1,.2,4.84C148.63,106.21,146.7,106.46,144.49,106.27Z" transform="translate(-0.24 -0.24)"/><path d="M215.37,106.59a29.42,29.42,0,0,1-1.42,4.61,5.16,5.16,0,0,1-8.2,1.38,8.5,8.5,0,0,1-2.59-5.24,11,11,0,0,1,.95-7,5.1,5.1,0,0,1,9-.61,11.26,11.26,0,0,1,2,6.75Z" transform="translate(-0.24 -0.24)"/><path d="M176,108h-4.19l2.26-6.56Z" transform="translate(-0.24 -0.24)"/><path d="M238.93,101.4l1.9,6.52h-4.16Z" transform="translate(-0.24 -0.24)"/><path d="M155.26,121.45a2.53,2.53,0,0,1,3.08,1.39,4.59,4.59,0,0,1-.28,4.52,2.16,2.16,0,0,1-3.6-.82,4.41,4.41,0,0,1,.84-5.14Z" transform="translate(-0.24 -0.24)"/><path d="M194.67,127.89c-1.94.2-2.59-.11-3.2-1.49a4.28,4.28,0,0,1,.6-4.56,2,2,0,0,1,3,.46,4.43,4.43,0,0,1-.45,5.64Z" transform="translate(-0.24 -0.24)"/></svg>